<?xml version="1.0" encoding="utf-8"?>
<!-- Generator: Adobe Illustrator 16.0.3, SVG Export Plug-In . SVG Version: 6.00 Build 0)  -->
<!DOCTYPE svg PUBLIC "-//W3C//DTD SVG 1.1//EN" "http://www.w3.org/Graphics/SVG/1.1/DTD/svg11.dtd">
<svg version="1.1" id="Capa_1" xmlns="http://www.w3.org/2000/svg" xmlns:xlink="http://www.w3.org/1999/xlink" x="0px" y="0px"
	 width="7093px" height="1000px" viewBox="0 0 7093 1000" enable-background="new 0 0 7093 1000" xml:space="preserve">
<g>
	<path fill-rule="evenodd" clip-rule="evenodd" d="M513.012,998.901c-4.555,0-9.109,0-13.665,0
		c-0.772-0.286-1.522-0.722-2.319-0.836c-21.661-3.092-43.372-5.868-64.977-9.306c-17.706-2.816-35.268-6.527-52.929-9.644
		c-26.59-4.69-51.532-14.158-76.09-25.104c-42.239-18.827-81.685-42.16-117.875-70.978
		C125.665,835.661,80.759,776.986,49.586,707.746c-13.92-30.92-24.681-62.9-32.542-95.951c-7.19-30.234-12.753-60.676-14.173-91.699
		c-1.428-31.242-0.739-62.381,6.566-93.142c3.808-16.035,5.32-32.606,8.886-48.71c3.47-15.671,6.874-31.597,12.774-46.43
		c7.601-19.111,17.254-37.453,26.737-55.757c20.516-39.597,45.093-76.531,74.553-110.086
		C188.136,102.475,257.094,58.24,335.825,29.203c22.472-8.288,46.576-12.115,69.868-18.229c24.361-6.395,49.302-8.462,74.271-9.306
		c30.598-1.034,61.258-1.229,91.584,4.454c20.261,3.797,40.924,6.103,60.716,11.577c23.365,6.462,46.292,14.847,68.858,23.787
		c36.489,14.455,69.768,34.796,100.877,58.659c33.146,25.424,62.503,54.702,88.26,87.583
		c26.484,33.812,48.523,70.348,66.216,109.458c11.239,24.844,20.095,50.488,26.556,77.086c7.199,29.632,12.148,59.598,13.701,89.911
		c2.844,55.534,0.083,110.693-13.979,164.967c-6.967,26.896-16.223,52.823-27.94,77.889c-14.629,31.291-32.151,60.897-52.627,88.788
		c-35.629,48.536-78.292,89.729-129.329,121.594c-22.999,14.358-47.168,27.297-72.014,38.105
		c-23.889,10.393-48.894,19.069-74.219,25.08c-27.229,6.464-55.41,8.904-83.161,13.188
		C533.292,995.366,523.161,997.192,513.012,998.901z M769.18,404.172c0-0.848-0.002-1.695-0.002-2.542
		c23.382,0,46.784-0.556,70.137,0.27c9.511,0.337,19.224,2.774,28.286,5.882c10.153,3.482,18.958,10.361,19.2,22.033
		c0.278,13.353-0.581,26.937-2.883,40.081c-2.839,16.201-7.762,32.032-11.632,48.061c-5.234,21.683-11.507,43.03-21.359,63.112
		c-9.649,19.664-23.041,36.062-42.118,47.576c-19.881,12-41.586,19.714-63.287,27.274c-25.8,8.989-51.956,16.953-77.989,25.261
		c-22.037,7.032-43.377,15.743-63.348,27.418c-15.415,9.013-29.418,19.917-39.29,35.205c-12.396,19.197-18.286,40.942-22.945,62.873
		c-4.584,21.575-7.569,43.492-11.206,65.267c-0.851,5.092-1.231,10.274-2.296,15.317c-3.015,14.267-4.881,28.614-1.82,43.042
		c1.763,8.311,6.051,14.928,14.193,19.127c10.872,5.608,21.99,4.079,32.715,1.469c20.168-4.908,40.216-10.494,59.976-16.848
		c20.524-6.599,40.954-13.7,60.867-21.932c23.136-9.563,43.771-23.739,64.31-37.966c35.052-24.279,66.521-52.475,93.938-85.11
		c36.067-42.931,63.299-91.17,82.451-143.651c7.217-19.776,10.791-40.993,14.825-61.785c3.648-18.8,5.813-37.897,8.359-56.9
		c3.967-29.611,1.375-59.196-2.548-88.487c-2.696-20.126-7.481-40.14-13.231-59.644c-6.33-21.474-13.879-42.712-22.6-63.331
		c-15.255-36.067-35.378-69.474-59.475-100.4c-28.162-36.144-60.883-67.508-98.724-93.433c-27.139-18.594-55.705-34.7-86.734-45.715
		c-23.025-8.173-46.413-15.61-70.096-21.552c-17.119-4.295-35.003-5.507-52.521-8.251c-34.838-5.458-69.746-4.708-104.523-0.175
		c-18.559,2.419-36.825,7.015-55.296,10.204c-24.123,4.164-46.86,12.548-69.228,22.075c-31.013,13.209-60.399,29.405-87.929,48.894
		c-37.59,26.612-70.485,58.084-98.134,94.977c-28.188,37.613-49.833,78.615-65.54,122.972c-9.889,27.927-17.135,56.432-21.457,85.6
		c-5.073,34.236-6.774,68.793-5.101,103.387c0.616,12.748,2.677,25.471,4.794,38.085c1.31,7.805,5.109,14.738,13.642,16.755
		c8.499,2.01,17.136,1.423,24.366-3.899c14.448-10.634,28.953-21.257,42.702-32.758c39.666-33.18,68.235-74.626,86.871-122.557
		c11.333-29.15,20.6-59.128,30.142-88.943c7.218-22.554,13.372-45.447,20.057-68.173c7.321-24.885,14.638-49.771,22.094-74.616
		c4.792-15.968,9.693-31.907,14.81-47.774c3.218-9.978,6.299-20.08,10.589-29.61c4.188-9.301,11.155-16.76,21.823-18.505
		c12.069-1.975,23.31,0.817,33.512,7.886c16.154,11.195,26.861,27.17,38.398,42.528c10.031,13.354,20.465,26.435,31.31,39.133
		c4.838,5.664,10.643,4.622,15.162-1.549c1.447-1.975,2.295-4.377,3.535-6.517c12.542-21.633,26.406-41.928,50.116-53.146
		c13.817-6.538,27.81-3.895,35.66,9.491c7.651,13.046,14.405,26.86,19.564,41.058c5.537,15.238,9.159,31.222,12.887,47.052
		c4.485,19.04,8.789,38.161,12.025,57.44c1.907,11.362,2.616,23.154,1.982,34.648c-0.604,10.954,2.073,18.664,12.576,22.876
		c1.101,0.442,1.982,1.472,2.911,2.291c13.172,11.634,26.516,23.082,39.456,34.967c17.667,16.225,37.85,25.083,62.265,24.314
		C728.625,403.666,748.91,404.172,769.18,404.172z M422.865,360.403c-0.024,0.296-0.049,0.593-0.073,0.889
		c-4.969,0-10.038,0.625-14.883-0.15c-6.838-1.095-13.672-2.77-20.199-5.072c-4.552-1.605-7.003-5.138-5.752-10.808
		c1.059-4.797,0.405-9.964,1.387-14.79c0.522-2.566,2.532-6.349,4.524-6.819c6.522-1.54,13.333-2.324,20.052-2.457
		c10.941-0.216,21.911,0.745,32.841,0.376c7.631-0.256,10.632-4.326,10.088-11.842c-0.313-4.315-0.639-8.709-1.705-12.877
		c-4.848-18.951-13.677-36.154-23.771-52.768c-18.197-29.953-39.16-57.792-63.66-82.896c-7.591-7.778-12.767-7.511-17.512,2.366
		c-5.496,11.439-10.006,23.469-13.743,35.611c-5.691,18.492-10.064,37.386-15.527,55.953c-5.582,18.973-12.06,37.681-17.683,56.642
		c-7.608,25.658-14.73,51.459-22.147,77.173c-4.166,14.444-7.405,29.28-12.995,43.161c-11.943,29.652-26.211,58.246-44.005,84.932
		c-21.539,32.302-46.891,60.714-80.02,81.886c-18.243,11.658-35.517,24.87-52.9,37.818c-7.987,5.949-11.581,14.284-9.675,24.569
		c3.361,18.141,11.206,34.488,20.355,50.207c19.497,33.497,42.562,64.406,68.417,93.287
		c49.882,55.719,110.446,95.611,180.171,121.923c12.88,4.86,26.028,9.037,39.146,13.241c18.455,5.912,37.019,11.694,56.653,11.655
		c19.368-0.037,34.057-10.476,38.299-28.096c4.427-18.386,6.569-37.319,9.76-56.005c2.606-15.261,4.716-30.639,8.083-45.732
		c3.889-17.437,8.11-34.882,13.68-51.833c5.179-15.761,10.878-31.681,18.91-46.104c14.554-26.133,38.651-42.412,64.488-56.075
		c39.866-21.084,83.036-33.795,125.253-48.895c16.471-5.891,33.304-10.798,49.648-17.005c13.019-4.943,24.726-12.165,32.977-24.079
		c13.57-19.596,25.642-39.93,32.505-62.952c3.665-12.293,5.459-23.865-5.724-34.303c-7.94-7.412-14.521-16.418-20.976-25.249
		c-6.576-8.994-15.459-12.648-25.956-13.492c-4.946-0.398-9.936-0.585-14.893-0.438c-23.17,0.687-46.336,1.5-69.503,2.315
		c-25.541,0.899-47.273-8.356-65.92-25.214c-10.431-9.43-20.055-19.751-30.493-29.172c-9.086-8.198-18.996-15.842-31.574-17.317
		c-15.39-1.804-30.918-2.43-46.388-3.538c-14.033-1.005-28.079-1.846-42.101-2.99C461.162,363.878,442.017,362.094,422.865,360.403z
		 M549.068,309.846c-0.056,0-0.112,0-0.17,0c0-1.858,0.182-3.738-0.026-5.572c-2.491-21.92-4.994-43.844-11.573-65.034
		c-5.115-16.476-10.688-32.826-15.25-49.453c-2.486-9.06-10.166-8.177-14.524-2.138c-8.656,11.996-17.64,23.765-26.014,35.953
		c-8.314,12.101-10.828,24.522-3.958,38.947c7.217,15.155,12.313,31.324,18.262,47.077c4.035,10.685,10.574,18.038,23,17.807
		c5.564-0.103,11.142-0.098,16.689-0.48c11.744-0.809,13.027-2.23,13.559-14.005C549.109,311.915,549.068,310.88,549.068,309.846z
		 M846.771,428.567c-0.004,0.055-0.009,0.11-0.012,0.166c-1.447,0-3.197-0.52-4.278,0.109c-2.212,1.286-4.066,3.188-6.067,4.838
		c1.755,1.67,3.263,4.227,5.323,4.803c3.071,0.859,6.61,0.75,9.797,0.186c1.486-0.263,3.409-2.413,3.688-3.969
		c0.307-1.694-0.537-4.553-1.831-5.343C851.664,428.304,849.02,428.759,846.771,428.567z"/>
	<path fill-rule="evenodd" clip-rule="evenodd" d="M514.354,453.46c4.914,1.374,10.197,2.381,15.108,4.325
		c9.471,3.749,14.341,13.247,11.673,23.142c-3.206,11.891-11.28,19.839-23.113,22.453c-12.369,2.731-23.349-0.557-30.625-11.993
		c-4.336-6.815-4.761-14.338-3.653-22.049c0.161-1.117,0.914-2.448,1.813-3.114C494.042,459.934,503.492,455.83,514.354,453.46z
		 M522.625,467.775c-5.53-7.206-11.564-2.565-17.279-1.428c-1.357,0.271-3.345,1.577-3.509,2.644
		c-0.233,1.516,0.548,3.593,1.601,4.832C507.898,479.076,519.317,477.812,522.625,467.775z"/>
</g>
<rect x="1869" y="215" fill-rule="evenodd" clip-rule="evenodd" fill="none" width="300" height="32"/>
<g>
	<path d="M1722.766,880.188c-92.813,0-173.203-11.688-241.203-35.063l-14.391-63.75c75.188,31.219,156.781,46.813,244.781,46.813
		c101.688,0,176.938-13.406,225.781-40.25C1986.578,761.11,2011,726.063,2011,682.798c0-36.047-13.625-66.094-40.859-90.125
		s-72.078-43.656-134.547-58.875l-184.797-44.406c-54.406-12.781-97.797-31.75-130.203-56.922
		C1488.188,407.313,1472,370.36,1472,321.626c0-60.938,27.391-108.234,82.203-141.922c54.797-33.672,136.203-50.516,244.219-50.516
		c88.063,0,160.5,8.469,217.344,25.391l15.484,62.625c-68.813-24-144.813-36.016-228.016-36.016
		c-95.281,0-165.141,12.609-209.578,37.797c-44.438,25.203-66.656,58.203-66.656,99c0,36,12.609,63,37.828,81
		s69.469,34.203,132.719,48.594l174.047,40.578c61.531,14.438,109.484,38.078,143.859,70.953
		c34.359,32.875,51.547,70.547,51.547,113.031C2067,810.845,1952.25,880.188,1722.766,880.188z"/>
	<path d="M3061.994,858.188h-64.797c-77.703-109.906-157.406-254.719-239.094-434.438l-280.313,265.422v169.016h-54v-704h54v466.078
		l487-466.078h78L2800.775,383.36c29.719,68.297,69.688,148.641,119.906,241.031C2970.885,716.798,3017.994,794.72,3061.994,858.188
		z"/>
	<path d="M4173.178,154.188l-336,524.391v179.609h-53V677.595l-327-523.406h66l289.203,465.172l293.797-465.172H4173.178z"/>
	<path d="M5118.975,806.188l-10.797,52h-548.406v-704h54v652H5118.975z"/>
	<path d="M6047.718,771.97c-80.031,70.813-176.484,106.219-289.344,106.219s-209.344-35-289.438-105.031
		c-80.109-70.016-120.156-159.844-120.156-269.469c0-103.219,38.828-190.453,116.516-261.672
		c77.672-71.219,175.359-106.828,293.078-106.828c113.656,0,210.297,35.016,289.938,105.031
		c79.641,70.031,119.469,157.844,119.469,263.469C6167.78,611.72,6127.749,701.157,6047.718,771.97z M5758.374,185.188
		c-99.25,0-183.5,31.656-252.734,94.953c-69.25,63.297-103.859,137.813-103.859,223.547c0,90.547,35.406,167.266,106.25,230.156
		c70.844,62.906,154.281,94.344,250.344,94.344c95.25,0,178.297-31.234,249.141-93.734s106.266-139.016,106.266-229.563
		c0-88.141-35.219-163.453-105.656-225.953S5854.437,185.188,5758.374,185.188z"/>
	<path d="M6720.739,880.188c-92.813,0-173.203-11.688-241.203-35.063l-14.391-63.75c75.188,31.219,156.781,46.813,244.781,46.813
		c101.688,0,176.938-13.406,225.781-40.25c48.844-26.828,73.266-61.875,73.266-105.141c0-36.047-13.625-66.094-40.859-90.125
		s-72.078-43.656-134.547-58.875l-184.797-44.406c-54.406-12.781-97.797-31.75-130.203-56.922
		c-32.406-25.156-48.594-62.109-48.594-110.844c0-60.938,27.391-108.234,82.203-141.922
		c54.797-33.672,136.203-50.516,244.219-50.516c88.063,0,160.5,8.469,217.344,25.391l15.484,62.625
		c-68.813-24-144.813-36.016-228.016-36.016c-95.281,0-165.141,12.609-209.578,37.797c-44.438,25.203-66.656,58.203-66.656,99
		c0,36,12.609,63,37.828,81s69.469,34.203,132.719,48.594l174.047,40.578c61.531,14.438,109.484,38.078,143.859,70.953
		c34.359,32.875,51.547,70.547,51.547,113.031C7064.974,810.845,6950.224,880.188,6720.739,880.188z"/>
</g>
<rect x="5224.417" y="923.277" fill-rule="evenodd" clip-rule="evenodd" fill="none" width="107.979" height="23.995"/>
</svg>
